<svg xmlns="http://www.w3.org/2000/svg" viewBox="0 0 480 270"><defs><style>.cls-1{fill:#388d3c;}.cls-2{fill:#348234;}.cls-3{fill:#dd7c12;}.cls-4{fill:#fff;}.cls-5{fill:#ffb74d;}.cls-6{fill:#455a64;}.cls-7{fill:none;}</style></defs><g id="Layer_1" data-name="Layer 1"><rect class="cls-1" y="0.04" width="385" height="208.96"/></g><g id="Layer_2" data-name="Layer 2"><path class="cls-2" d="M374,199H10c53.59-4.94,150.15-21.52,248-86A530.42,530.42,0,0,0,374,9Z"/></g><g id="Layer_4" data-name="Layer 4"><path class="cls-3" d="M375,10V199H10V10H375M385,0H0V209H385V0Z"/></g><g id="Layer_7" data-name="Layer 7"><rect class="cls-4" x="44" y="43" width="57" height="14"/><rect class="cls-4" x="115" y="43" width="148" height="14"/><rect class="cls-4" x="184" y="71" width="80" height="14"/><rect class="cls-4" x="44" y="71" width="126" height="14"/></g><g id="Layer_6" data-name="Layer 6"><path class="cls-5" d="M445,223v-1l-20,14v22l20-15"/><circle class="cls-5" cx="395" cy="72" r="35"/><path class="cls-6" d="M374,113h45c10,3,15,4.44,18,11,5,11,9,99,9,99-3.67,3.13-14.67,11.46-18,13q-1,17-2,34H365c-2-36.67,0-76.33-2-113-10,4.67-24,12.33-34,17,0,0-9,4-14,0s-35-26-35-26l14-20,25,17s3,4,7,0S359,120,374,113Z"/><path class="cls-6" d="M452,241"/><polyline class="cls-5" points="295 129 272 113 272 140 281 146"/><polyline class="cls-4" points="374 113 395 142 416 113"/><rect class="cls-7" x="475" width="5" height="270"/></g></svg>