<svg xmlns="http://www.w3.org/2000/svg" viewBox="0 0 480 270.05"><defs><style>.cls-1{fill:#388d3c;}.cls-2{fill:#348234;}.cls-3{fill:#dd7c12;}.cls-4{fill:#fff;}.cls-5{fill:#ffb74d;}.cls-6{fill:#3f51b5;}.cls-7{fill:#1a237e;}.cls-8{fill:none;}.cls-9{fill:#4caf50;}.cls-10{fill:#2e7d32;}</style></defs><g id="Layer_1" data-name="Layer 1"><rect class="cls-1" y="0.04" width="385" height="208.96"/></g><g id="Layer_2" data-name="Layer 2"><path class="cls-2" d="M374,199H10c53.59-4.94,150.15-21.52,248-86A530.42,530.42,0,0,0,374,9Z"/></g><g id="Layer_4" data-name="Layer 4"><path class="cls-3" d="M375,10V199H10V10H375M385,0H0V209H385V0Z"/></g><g id="Layer_7" data-name="Layer 7"><rect class="cls-4" x="207" y="43" width="57" height="14"/><rect class="cls-4" x="44" y="43" width="148" height="14"/><rect class="cls-4" x="44" y="71" width="80" height="14"/><rect class="cls-4" x="138" y="71" width="126" height="14"/></g><g id="Layer_9" data-name="Layer 9"><circle class="cls-5" cx="397" cy="112" r="30"/><g id="Layer_10" data-name="Layer 10"><polygon class="cls-5" points="356.28 198 356.28 241 369.58 253 369.58 198 356.28 198"/><polygon class="cls-5" points="437.77 198 437.77 241 424.47 253 424.47 198 437.77 198"/></g><g id="Layer_11" data-name="Layer 11"><polygon class="cls-6" points="397.02 254 400.74 270 424.47 270 424.47 236 369.58 236 369.58 270 393.03 270 397.02 254"/><polygon class="cls-7" points="397.02 254 393.03 270 400.74 270 397.02 254"/><rect class="cls-8" x="475" width="5" height="270"/></g><line class="cls-6" x1="369.58" y1="236" x2="369.58" y2="270.05"/><path class="cls-9" d="M424.47,236V198h13.3s2.66-24-10.16-38.52a33.39,33.39,0,0,0-12.07-8.29,30.83,30.83,0,0,0-9.37-2.19c-8.31-.72-27.44-3-38.83,12.69-7.19,9.91-11.06,22.41-11.06,36.31h13.3v38Z"/><path class="cls-10" d="M369.58,187H357.13a70.53,70.53,0,0,0-.85,11h13.3Z"/><path class="cls-10" d="M437.78,187H424.47v11h13.3A64.75,64.75,0,0,0,437.78,187Z"/><path class="cls-10" d="M415.54,151.19a30.83,30.83,0,0,0-9.37-2.19c-5.81-.5-16.91-1.76-26.95,2.88,2.51,2.6,7.69,7.11,15.09,8.33,11.62,1.92,20.31-5.68,22.95-8.28C416.2,151.43,415.54,151.19,415.54,151.19Z"/></g></svg>